<svg width="105" height="35" viewBox="0 0 105 35" xmlns="http://www.w3.org/2000/svg"><title>logo / Top Bar / Default</title><g fill="none" fill-rule="evenodd"><path d="M7.104 13.234V9.477c0-.432-.029-.782-.088-1.05-.06-.27-.165-.483-.317-.638a1.163 1.163 0 0 0-.593-.313 4.417 4.417 0 0 0-.92-.08c-.383 0-.696.033-.94.1a1.07 1.07 0 0 0-.573.364c-.14.175-.235.417-.288.727-.053.311-.079.715-.079 1.213v.97c0 .525.026.946.079 1.262.053.317.148.565.288.747a.993.993 0 0 0 .583.364c.25.061.567.091.95.091h1.898zM5.146 15.76c-.976 0-1.784-.083-2.423-.252-.64-.168-1.155-.448-1.544-.839-.389-.39-.662-.898-.82-1.525C.2 12.517.12 11.746.12 10.83V9.9c0-.915.089-1.693.267-2.333.178-.639.452-1.158.821-1.555.37-.397.84-.687 1.414-.87.574-.18 1.25-.271 2.029-.271.5 0 .972.054 1.414.161.441.107.788.256 1.038.444V.75h3.146v12.93c0 .781-.168 1.322-.505 1.626-.336.303-.919.454-1.75.454H5.145zM12.149 15.76h3.145V5.194h-3.145V15.76zm3.364-13.476c0 .553-.126.95-.376 1.192-.252.243-.72.364-1.405.364-.7 0-1.174-.12-1.424-.364-.251-.242-.377-.639-.377-1.192 0-.524.126-.912.377-1.162.25-.248.725-.373 1.424-.373.685 0 1.153.125 1.405.373.25.25.376.638.376 1.162zM17.193 15.76V8.79c0-.741.1-1.364.297-1.87.198-.505.485-.908.86-1.212.377-.303.838-.518 1.386-.646a8.18 8.18 0 0 1 1.85-.191c1.503 0 2.598.39 3.283 1.17.66-.78 1.768-1.17 3.325-1.17.672 0 1.278.064 1.819.191.54.128.999.343 1.375.646.376.304.662.707.86 1.213.199.505.297 1.128.297 1.868v6.97H29.4V9.093c0-.283-.017-.526-.05-.728a1.09 1.09 0 0 0-.207-.505.888.888 0 0 0-.445-.293c-.192-.06-.452-.09-.783-.09a2.95 2.95 0 0 0-.751.08.898.898 0 0 0-.454.262 1 1 0 0 0-.218.455 3.17 3.17 0 0 0-.06.657v6.828h-3.146V9.093c0-.283-.016-.526-.049-.728a1.147 1.147 0 0 0-.198-.505.828.828 0 0 0-.434-.293c-.192-.06-.453-.09-.782-.09-.33 0-.59.03-.782.09a.894.894 0 0 0-.445.293 1.09 1.09 0 0 0-.208.505 4.634 4.634 0 0 0-.049.728v6.666h-3.146zM39.113 7.234c-.356 0-.642.03-.86.09a.98.98 0 0 0-.514.324c-.126.155-.212.367-.258.637a6.43 6.43 0 0 0-.068 1.05h3.422c0-.43-.023-.78-.07-1.05-.046-.27-.135-.482-.267-.637a1.037 1.037 0 0 0-.524-.323c-.218-.06-.504-.09-.86-.09zm-1.7 4.323c.012.35.049.634.108.848.059.216.165.392.316.526.151.135.353.226.604.273.25.047.567.07.95.07h1.75c.626 0 1.33-.006 2.107-.02l-.455 2.505c-.66.028-1.273.041-1.84.041h-1.86c-.936 0-1.714-.098-2.333-.293-.621-.195-1.115-.492-1.485-.889-.369-.397-.63-.896-.781-1.495-.152-.599-.227-1.303-.227-2.11V9.9c0-.849.081-1.586.246-2.212.165-.626.443-1.149.832-1.566.389-.417.896-.73 1.523-.94.626-.208 1.401-.312 2.325-.312 1.661 0 2.848.353 3.56 1.06.713.707 1.068 1.694 1.068 2.96v.424c0 .444-.026.808-.079 1.09a1.543 1.543 0 0 1-.287.688c-.138.175-.319.296-.544.363-.224.068-.5.101-.83.101h-4.668zM45.464 15.76V8.85c0-.74.092-1.364.276-1.869.185-.505.472-.915.86-1.232.39-.316.894-.542 1.515-.677.62-.134 1.364-.201 2.234-.201.871 0 1.617.067 2.236.201.62.135 1.126.36 1.514.677.389.317.677.727.861 1.232.185.505.278 1.128.278 1.87v6.908H52.09V9.093c0-.283-.02-.526-.059-.728-.04-.202-.119-.37-.238-.505s-.294-.232-.523-.293c-.232-.06-.539-.09-.922-.09-.382 0-.688.03-.919.09-.23.061-.406.158-.525.293a1.066 1.066 0 0 0-.237.505c-.039.202-.059.445-.059.728v6.666h-3.145zM59.847 8.244c0 .216.066.374.197.475.132.1.43.172.89.212l1.82.162c.607.054 1.115.168 1.523.344.41.175.736.397.98.666.244.27.415.583.514.939.1.357.15.745.15 1.162v.343c0 1.118-.364 1.94-1.088 2.465-.728.525-1.868.788-3.424.788h-2.048a88.496 88.496 0 0 1-2.601-.04l.436-2.485a255.971 255.971 0 0 0 4.312.04c.555 0 .927-.047 1.118-.141.19-.095.286-.29.286-.586 0-.229-.065-.4-.196-.515-.133-.115-.43-.186-.892-.212l-1.937-.142c-1.096-.08-1.874-.404-2.336-.97-.46-.565-.692-1.258-.692-2.08v-.384c0-.498.08-.94.238-1.324.157-.384.412-.71.761-.98.35-.268.807-.474 1.377-.616.566-.141 1.258-.212 2.076-.212H63.03c.344 0 .736.004 1.178.01.442.007.946.017 1.513.03l-.455 2.486c-.607-.014-1.132-.024-1.573-.031-.441-.007-.828-.01-1.157-.01H61.112c-.474 0-.804.034-.989.101-.185.068-.276.236-.276.505M67.543 15.76h3.144V5.194h-3.144V15.76zm3.362-13.476c0 .553-.125.95-.376 1.192-.25.243-.719.364-1.405.364-.698 0-1.173-.12-1.424-.364-.25-.242-.375-.639-.375-1.192 0-.524.125-.912.375-1.162.25-.248.726-.373 1.424-.373.686 0 1.155.125 1.405.373.25.25.376.638.376 1.162zM79.411 9.82c0-.525-.026-.946-.079-1.263-.052-.316-.152-.558-.297-.727a1.094 1.094 0 0 0-.584-.343 3.997 3.997 0 0 0-.939-.091c-.383 0-.697.03-.94.09-.244.06-.438.176-.583.344-.145.169-.248.411-.307.727-.06.317-.09.738-.09 1.263v1.293c0 .526.03.949.09 1.273.06.323.162.569.307.737.145.168.339.283.583.343.243.061.557.091.94.091.382 0 .695-.03.94-.091a1.09 1.09 0 0 0 .583-.343c.145-.168.245-.414.297-.737.053-.324.08-.747.08-1.273V9.82zm-1.899-4.95c.923 0 1.708.081 2.354.243.647.162 1.17.438 1.572.828.403.391.697.909.882 1.556.183.646.276 1.454.276 2.424v1.111c0 .957-.093 1.757-.276 2.405-.185.646-.479 1.164-.882 1.554-.402.391-.925.671-1.572.84-.646.168-1.431.252-2.354.252s-1.707-.084-2.354-.252c-.647-.169-1.174-.449-1.583-.84-.409-.39-.706-.908-.89-1.554-.184-.648-.277-1.448-.277-2.405V9.921c0-.97.093-1.778.276-2.424.185-.647.482-1.165.891-1.556.409-.39.936-.666 1.583-.828.647-.162 1.431-.242 2.354-.242zM84.318 15.76V8.85c0-.74.091-1.364.276-1.869.185-.505.471-.915.86-1.232.39-.316.894-.542 1.515-.677.62-.134 1.364-.201 2.235-.201.87 0 1.615.067 2.235.201.62.135 1.125.36 1.514.677.388.317.676.727.86 1.232.185.505.278 1.128.278 1.87v6.908h-3.147V9.093c0-.283-.02-.526-.059-.728a1.05 1.05 0 0 0-.238-.505c-.117-.135-.292-.232-.523-.293-.232-.06-.538-.09-.92-.09-.383 0-.69.03-.92.09-.231.061-.406.158-.525.293a1.067 1.067 0 0 0-.237.505c-.04.202-.06.445-.06.728v6.666h-3.144zM98.7 8.244c0 .216.066.374.197.475.132.1.429.172.89.212l1.821.162c.605.054 1.114.168 1.523.344.409.175.735.397.979.666.243.27.415.583.514.939.1.357.15.745.15 1.162v.343c0 1.118-.364 1.94-1.088 2.465-.728.525-1.868.788-3.424.788h-2.048a88.63 88.63 0 0 1-2.601-.04l.436-2.485a255.971 255.971 0 0 0 4.312.04c.555 0 .927-.047 1.119-.141.19-.095.286-.29.286-.586 0-.229-.066-.4-.197-.515-.133-.115-.43-.186-.891-.212l-1.938-.142c-1.096-.08-1.875-.404-2.335-.97-.462-.565-.692-1.258-.692-2.08v-.384c0-.498.079-.94.237-1.324.157-.384.411-.71.761-.98.35-.268.807-.474 1.376-.616.567-.141 1.259-.212 2.077-.212H101.884c.344 0 .736.004 1.177.01.442.007.947.017 1.514.03l-.455 2.486c-.606-.014-1.132-.024-1.572-.031-.442-.007-.829-.01-1.158-.01H99.965c-.474 0-.804.034-.989.101-.185.068-.276.236-.276.505" fill="#9EC73D"/><path d="M4.555 30.216c.492 0 .888-.036 1.187-.108.299-.072.533-.215.703-.431.17-.215.282-.518.335-.906.052-.39.078-.902.078-1.536v-.808c0-.658-.03-1.182-.088-1.572-.058-.388-.173-.688-.342-.898a1.21 1.21 0 0 0-.703-.412c-.3-.065-.69-.098-1.17-.098-.469 0-.856.033-1.161.098-.306.066-.545.2-.721.404-.176.204-.296.494-.36.87-.065.378-.097.884-.097 1.519v1.274c0 .527.035.958.105 1.293.07.336.194.602.37.799.175.197.416.332.72.404.305.072.686.108 1.144.108m.017-8.315c.75 0 1.39.07 1.916.206.529.139.96.38 1.294.728.334.348.577.812.73 1.392.151.582.228 1.314.228 2.2v.808c0 .79-.062 1.47-.185 2.038-.123.568-.34 1.036-.65 1.402-.311.364-.736.637-1.276.816-.539.18-1.23.269-2.074.269-.551 0-1.017-.07-1.399-.206-.38-.138-.688-.314-.923-.53v3.592H.37v-8.278c0-.851.08-1.56.237-2.129.159-.568.408-1.024.748-1.365.34-.341.774-.583 1.301-.727.528-.144 1.167-.216 1.917-.216M11.975 28.69c0 .42.124.733.37.942.245.21.697.314 1.354.314h2.672v-1.652c0-.228-.023-.424-.07-.592a.728.728 0 0 0-.281-.404c-.14-.102-.346-.178-.616-.226a6.538 6.538 0 0 0-1.073-.07h-.404c-.387 0-.706.02-.959.062-.251.042-.45.114-.597.216a.797.797 0 0 0-.308.404c-.06.168-.088.377-.088.628v.378zm6.155 1.238c0 .576-.13.976-.387 1.204-.258.227-.727.341-1.407.341H13.7c-1.232 0-2.114-.23-2.647-.691-.534-.462-.8-1.152-.8-2.075v-.395c0-1.005.29-1.724.87-2.154.581-.432 1.486-.648 2.717-.648.704 0 1.255.057 1.653.17.399.115.691.238.88.37v-.54c0-.298-.02-.559-.063-.78a.988.988 0 0 0-.298-.556c-.159-.15-.387-.264-.686-.342-.3-.078-.706-.117-1.222-.117a131.307 131.307 0 0 0-3.007.036l.334-1.562a48.12 48.12 0 0 1 1.213-.027c.48-.006.968-.01 1.46-.01 1.418 0 2.444.255 3.077.764.633.51.95 1.26.95 2.254v4.758zM21.032 33.054c.585.023 1.096.035 1.53.035h1.336c.434 0 .803-.039 1.107-.117.305-.078.555-.21.748-.394.193-.186.33-.44.413-.764.082-.324.123-.736.123-1.239v-.198a4.37 4.37 0 0 1-.351.288c-.13.096-.29.18-.484.251-.193.071-.434.128-.72.171a7.646 7.646 0 0 1-1.065.063c-1.126 0-1.99-.219-2.594-.656-.604-.437-.905-1.206-.905-2.308v-5.997h1.846v5.567c0 .3.014.562.044.79.03.228.105.418.229.575.123.155.316.272.579.35.265.077.625.116 1.082.116.504 0 .909-.033 1.214-.099.304-.065.539-.179.703-.34.164-.163.276-.372.334-.63.06-.256.088-.576.088-.96V22.19h1.847v8.386c0 .743-.08 1.37-.237 1.885-.16.516-.41.935-.757 1.258-.346.322-.785.56-1.319.71-.534.15-1.17.223-1.908.223H22.44c-.247 0-.511-.002-.792-.009-.281-.006-.598-.016-.95-.026l.335-1.562zM34.976 25.996c.528.047.955.158 1.284.332.328.174.58.382.756.628.176.246.296.51.36.791.065.28.097.554.097.817v.251c0 .85-.299 1.512-.897 1.985-.598.473-1.518.71-2.76.71a320.634 320.634 0 0 1-3.94-.036l.317-1.564a197.015 197.015 0 0 0 3.71.036c.68 0 1.146-.077 1.398-.233.252-.155.378-.46.378-.915 0-.145-.014-.279-.043-.404a.716.716 0 0 0-.177-.333 1.026 1.026 0 0 0-.378-.243 2.444 2.444 0 0 0-.667-.134l-2.111-.198c-.433-.036-.802-.128-1.108-.279a2.233 2.233 0 0 1-.738-.556 2.161 2.161 0 0 1-.414-.745 2.79 2.79 0 0 1-.131-.844v-.305c0-.814.275-1.451.826-1.914.551-.46 1.453-.69 2.708-.69h1.76c.608 0 1.294.012 2.057.036l-.317 1.562c-.492-.012-.926-.02-1.302-.027a56.12 56.12 0 0 0-.993-.009h-1.399c-.597 0-1.013.074-1.248.225-.234.15-.351.416-.351.798 0 .156.014.294.044.413.029.12.087.221.175.305.088.084.217.157.387.216.17.06.396.102.677.126l2.04.198zM40.708 28.69c0 .42.124.733.37.942.245.21.697.314 1.354.314h2.673v-1.652c0-.228-.024-.424-.07-.592a.725.725 0 0 0-.282-.404c-.14-.102-.346-.178-.615-.226a6.547 6.547 0 0 0-1.074-.07h-.404c-.387 0-.706.02-.958.062-.252.042-.451.114-.598.216a.801.801 0 0 0-.307.404 1.924 1.924 0 0 0-.089.628v.378zm6.155 1.238c0 .576-.129.976-.387 1.204-.258.227-.726.341-1.406.341h-2.638c-1.23 0-2.113-.23-2.647-.691-.533-.462-.8-1.152-.8-2.075v-.395c0-1.005.29-1.724.87-2.154.581-.432 1.487-.648 2.717-.648.705 0 1.255.057 1.654.17.398.115.69.238.879.37v-.54c0-.298-.02-.559-.062-.78a.989.989 0 0 0-.299-.556c-.158-.15-.387-.264-.685-.342-.3-.078-.707-.117-1.222-.117a131.15 131.15 0 0 0-3.007.036l.334-1.562a48.06 48.06 0 0 1 1.212-.027c.481-.006.968-.01 1.46-.01 1.42 0 2.445.255 3.078.764.633.51.95 1.26.95 2.254v4.758zM52.895 29.605c.492 0 .888-.036 1.188-.107.298-.073.533-.198.702-.378.17-.18.284-.416.344-.709.06-.292.088-.667.088-1.122v-.863c0-.61-.02-1.11-.062-1.5-.043-.388-.139-.69-.29-.905-.153-.216-.383-.365-.694-.45-.311-.082-.736-.125-1.276-.125s-.965.043-1.275.125c-.311.085-.542.234-.695.45-.153.214-.249.517-.29.906-.04.389-.062.889-.062 1.499v.198c0 .61.021 1.11.062 1.5.041.389.141.69.299.907.158.215.39.366.695.449.305.083.726.125 1.266.125zm2.322.808c-.236.216-.54.393-.915.53-.376.138-.897.206-1.565.206-.82 0-1.493-.098-2.014-.295-.522-.198-.933-.485-1.232-.862-.298-.377-.506-.839-.624-1.383a9.012 9.012 0 0 1-.175-1.878v-.412c0-.682.053-1.296.158-1.84.106-.545.31-1.008.615-1.392.305-.384.73-.676 1.275-.88.545-.204 1.258-.306 2.138-.306.88 0 1.591.102 2.136.306.546.204.967.488 1.266.853.3.365.502.802.607 1.31.106.51.159 1.07.159 1.68v4.526c0 .74-.079 1.37-.238 1.885-.158.515-.407.934-.748 1.257-.34.323-.775.56-1.31.709-.533.15-1.17.224-1.908.224h-1.478c-.245 0-.51-.003-.79-.008-.281-.006-.599-.016-.95-.027l.351-1.562c.587.023 1.094.035 1.522.035h1.328c.433 0 .802-.04 1.108-.116.304-.078.554-.21.746-.396.194-.185.333-.44.414-.763.081-.323.124-.736.124-1.238v-.163zM62.901 23.392c-.469 0-.844.036-1.125.108a1.185 1.185 0 0 0-.659.404c-.16.197-.264.47-.317.816-.053.348-.08.798-.08 1.348h4.38v-.611c0-.395-.034-.727-.097-.996a1.236 1.236 0 0 0-.351-.638 1.497 1.497 0 0 0-.678-.333 4.862 4.862 0 0 0-1.073-.098zm-2.18 4.13c0 .503.026.91.079 1.22.053.313.158.558.317.738.158.178.378.302.659.368.281.065.656.098 1.125.098h1.292c.523 0 1.2-.012 2.032-.036l-.317 1.563c-.363.012-.674.02-.931.027-.258.006-.496.009-.712.009h-1.363c-.832 0-1.51-.1-2.032-.297-.521-.197-.932-.478-1.23-.844a2.985 2.985 0 0 1-.607-1.328 8.786 8.786 0 0 1-.158-1.733V26.3c0-.682.055-1.296.167-1.84.111-.545.316-1.006.615-1.383.298-.377.715-.667 1.249-.871.532-.203 1.227-.305 2.084-.305.784 0 1.426.092 1.925.278.498.185.89.437 1.178.754.287.318.484.682.59 1.096.104.412.157.84.157 1.283v.27c0 .43-.023.771-.07 1.023-.047.25-.123.446-.228.584a.727.727 0 0 1-.396.27c-.157.042-.35.062-.572.062H60.72zM76.983 26.126a4.2 4.2 0 0 1 1.041.303c.282.13.509.298.68.505.171.206.294.454.37.74.074.288.112.625.112 1.011v.229c0 .431-.058.808-.172 1.131a1.767 1.767 0 0 1-.58.808c-.273.216-.633.377-1.083.484-.448.108-1.006.163-1.674.163h-1.194c-.523 0-1.193-.01-2.01-.027l.237-1.266a79.6 79.6 0 0 0 1.676.027h1.291c.43 0 .785-.02 1.061-.061.278-.04.495-.112.653-.215a.774.774 0 0 0 .324-.418c.057-.175.086-.397.086-.667 0-.233-.016-.43-.046-.593a.9.9 0 0 0-.186-.41 1 1 0 0 0-.401-.276 3.673 3.673 0 0 0-.7-.189l-1.78-.296c-.439-.071-.803-.177-1.088-.316a1.907 1.907 0 0 1-.672-.512 1.724 1.724 0 0 1-.338-.714 4.35 4.35 0 0 1-.092-.936v-.256c0-.386.06-.734.178-1.044.12-.309.312-.574.58-.794.27-.22.62-.389 1.056-.505.435-.117.973-.175 1.616-.175H77.233c.22 0 .46.002.718.006l.944.02-.238 1.267a56.458 56.458 0 0 0-1.595-.027H75.81c-.387 0-.705.02-.956.059-.25.041-.448.113-.593.216a.771.771 0 0 0-.298.405 2.09 2.09 0 0 0-.08.626c0 .215.017.4.047.552.03.153.09.284.18.391a.972.972 0 0 0 .381.268c.167.073.387.131.659.177l1.834.309zM82.47 27.513h3.005l-1.502-4.202-1.503 4.202zm3.441 1.212h-3.864l-.976 2.747h-1.397l3.587-9.589h1.529l3.588 9.59H86.9l-.989-2.748z" fill="#FFF"/></g></svg>