<?xml version="1.0" encoding="UTF-8"?>
<svg width="105px" height="35px" viewBox="0 0 105 35" version="1.1" xmlns="http://www.w3.org/2000/svg" xmlns:xlink="http://www.w3.org/1999/xlink">
    <!-- Generator: Sketch 46.2 (44496) - http://www.bohemiancoding.com/sketch -->
    <title>logo / Top Bar / Default</title>
    <desc>Created with Sketch.</desc>
    <defs></defs>
    <g id="HP-09-10" stroke="none" stroke-width="1" fill="none" fill-rule="evenodd">
        <g id="HP-5-09" transform="translate(-165.000000, -43.000000)">
            <g id="section-/-Top-Bar" transform="translate(165.000000, 20.000000)">
                <g id="logo-/-Top-Bar-/-Default" transform="translate(0.000000, 23.000000)">
                    <path d="M7.10445736,13.2340667 L7.10445736,9.47673333 C7.10445736,9.0454 7.07508,8.6954 7.01567245,8.42606667 C6.95561208,8.15673333 6.85050642,7.94406667 6.69904981,7.7894 C6.54694038,7.63473333 6.34913283,7.53006667 6.10562717,7.47606667 C5.86146868,7.42273333 5.55463849,7.39606667 5.1851366,7.39606667 C4.80257811,7.39606667 4.48987245,7.4294 4.24571396,7.49673333 C4.00155547,7.56473333 3.81027623,7.6854 3.67252906,7.86006667 C3.53347623,8.0354 3.43751019,8.2774 3.38463094,8.5874 C3.33240453,8.89806667 3.30629132,9.30206667 3.30629132,9.80006667 L3.30629132,10.7694 C3.30629132,11.2947333 3.33240453,11.7160667 3.38463094,12.0320667 C3.43751019,12.3487333 3.53347623,12.5974 3.67252906,12.7794 C3.81027623,12.9614 4.00481962,13.0827333 4.25550642,13.1427333 C4.50619321,13.2040667 4.82281585,13.2340667 5.20537434,13.2340667 L7.10445736,13.2340667 Z M5.14596679,15.7594 C4.16998566,15.7594 3.36178189,15.6760667 2.72266113,15.5074 C2.08288755,15.3387333 1.56845736,15.0594 1.17937057,14.6680667 C0.790283774,14.2774 0.516747925,13.7700667 0.358110189,13.1427333 C0.200125283,12.5167333 0.12113283,11.7460667 0.12113283,10.8300667 L0.12113283,9.90073333 C0.12113283,8.98473333 0.209917736,8.2074 0.388140377,7.5674 C0.565710189,6.92806667 0.839898868,6.4094 1.20940075,6.01206667 C1.57824981,5.61473333 2.04959321,5.32473333 2.62343094,5.14273333 C3.19726868,4.9614 3.87294792,4.87073333 4.65177434,4.87073333 C5.15249509,4.87073333 5.62383849,4.92473333 6.06580453,5.03206667 C6.50711774,5.1394 6.85377057,5.28806667 7.10445736,5.47606667 L7.10445736,0.748733333 L10.2497932,0.748733333 L10.2497932,13.6787333 C10.2497932,14.4600667 10.0820158,15.0014 9.74515547,15.3047333 C9.40894792,15.6080667 8.82597057,15.7594 7.99426491,15.7594 L5.14596679,15.7594 Z" id="Fill-2" fill="#9EC73D"></path>
                    <path d="M12.1486151,15.7597333 L15.2939509,15.7597333 L15.2939509,5.19373333 L12.1486151,5.19373333 L12.1486151,15.7597333 Z M15.5126491,2.2844 C15.5126491,2.83706667 15.3866528,3.23373333 15.1366189,3.4764 C14.8852792,3.71906667 14.4172,3.8404 13.7317283,3.8404 C13.0325472,3.8404 12.5579396,3.71906667 12.3079057,3.4764 C12.056566,3.23373333 11.9312226,2.83706667 11.9312226,2.2844 C11.9312226,1.75973333 12.056566,1.3724 12.3079057,1.1224 C12.5579396,0.873733333 13.0325472,0.749066667 13.7317283,0.749066667 C14.4172,0.749066667 14.8852792,0.873733333 15.1366189,1.1224 C15.3866528,1.3724 15.5126491,1.75973333 15.5126491,2.2844 L15.5126491,2.2844 Z" id="Fill-4" fill="#9EC73D"></path>
                    <path d="M17.1933604,15.7594667 L17.1933604,8.78946667 C17.1933604,8.0488 17.2925906,7.42613333 17.4903981,6.9208 C17.6882057,6.41546667 17.9747981,6.01213333 18.3508283,5.70813333 C18.7268585,5.40546667 19.1884094,5.19013333 19.736134,5.06213333 C20.2832057,4.9348 20.8994774,4.8708 21.5856019,4.8708 C23.0890698,4.8708 24.183866,5.2608 24.8693377,6.04146667 C25.5286962,5.2608 26.6365491,4.8708 28.1935491,4.8708 C28.8659642,4.8708 29.4717906,4.9348 30.0129868,5.06213333 C30.5535302,5.19013333 31.011817,5.40546667 31.3878472,5.70813333 C31.7638774,6.01213333 32.0504698,6.41546667 32.2489302,6.9208 C32.4467377,7.42613333 32.5453151,8.0488 32.5453151,8.78946667 L32.5453151,15.7594667 L29.3999792,15.7594667 L29.3999792,9.0928 C29.3999792,8.81013333 29.3830057,8.5668 29.3503642,8.36546667 C29.3177226,8.1628 29.2478698,7.99546667 29.1427642,7.86013333 C29.0370057,7.72546667 28.8888132,7.62813333 28.697534,7.56746667 C28.5062547,7.5068 28.2457755,7.47613333 27.9154434,7.47613333 C27.6125302,7.47613333 27.3624962,7.50346667 27.1640358,7.5568 C26.9662283,7.6108 26.8147717,7.6988 26.709666,7.81946667 C26.6039075,7.9408 26.5307906,8.0928 26.4916208,8.27413333 C26.4524509,8.45613333 26.432866,8.67546667 26.432866,8.9308 L26.432866,15.7594667 L23.2862245,15.7594667 L23.2862245,9.0928 C23.2862245,8.81013333 23.2699038,8.5668 23.2372623,8.36546667 C23.2046208,8.1628 23.1386849,7.99546667 23.0394547,7.86013333 C22.9408774,7.72546667 22.7959491,7.62813333 22.6046698,7.56746667 C22.4133906,7.5068 22.1522585,7.47613333 21.8225792,7.47613333 C21.4929,7.47613333 21.2324208,7.5068 21.0411415,7.56746667 C20.8505151,7.62813333 20.7023226,7.72546667 20.5959113,7.86013333 C20.4901528,7.99546667 20.4216057,8.1628 20.3883113,8.36546667 C20.3556698,8.5668 20.3393491,8.81013333 20.3393491,9.0928 L20.3393491,15.7594667 L17.1933604,15.7594667 Z" id="Fill-6" fill="#9EC73D"></path>
                    <path d="M39.1132438,7.23406667 C38.7574513,7.23406667 38.4708589,7.26406667 38.2528136,7.32473333 C38.0354211,7.38606667 37.8637268,7.4934 37.7390362,7.64806667 C37.61304,7.8034 37.5268664,8.0154 37.4811683,8.28473333 C37.4348174,8.55406667 37.4126211,8.90406667 37.4126211,9.33473333 L40.834757,9.33473333 C40.834757,8.90406667 40.8119079,8.55406667 40.7649042,8.28473333 C40.719206,8.0154 40.6297683,7.8034 40.4978966,7.64806667 C40.3660249,7.4934 40.1917192,7.38606667 39.973674,7.32473333 C39.7562815,7.26406667 39.4696891,7.23406667 39.1132438,7.23406667 L39.1132438,7.23406667 Z M37.4126211,11.5574 C37.4250249,11.9074 37.4615834,12.1907333 37.5209909,12.4054 C37.5797457,12.6214 37.6855042,12.7967333 37.8369608,12.9307333 C37.9884174,13.0660667 38.1901419,13.1567333 38.4408287,13.2040667 C38.6915155,13.2507333 39.0081381,13.2747333 39.3906966,13.2747333 L41.1409343,13.2747333 C41.7669985,13.2747333 42.4700966,13.2680667 43.2482702,13.2540667 L42.7932475,15.7594 C42.1332362,15.7867333 41.5202287,15.8000667 40.9529192,15.8000667 L39.0936589,15.8000667 C38.1568475,15.8000667 37.3793268,15.7020667 36.7597909,15.5074 C36.1389494,15.3120667 35.644757,15.0154 35.2752551,14.6180667 C34.906406,14.2207333 34.645274,13.7220667 34.4938174,13.1227333 C34.3417079,12.5240667 34.2666325,11.8200667 34.2666325,11.0120667 L34.2666325,9.90073333 C34.2666325,9.05206667 34.3482362,8.31473333 34.5134023,7.68873333 C34.6779155,7.06273333 34.9560211,6.54006667 35.3451079,6.12273333 C35.7335419,5.70606667 36.2414438,5.39273333 36.8681608,5.1834 C37.4942249,4.97473333 38.2691343,4.87073333 39.1928891,4.87073333 C40.8543419,4.87073333 42.0405343,5.22406667 42.7534249,5.93073333 C43.4656626,6.63806667 43.8214551,7.62473333 43.8214551,8.89006667 L43.8214551,9.31473333 C43.8214551,9.7594 43.7953419,10.1227333 43.7424626,10.4054 C43.6895834,10.6887333 43.5942702,10.9174 43.4552174,11.0927333 C43.3174702,11.2680667 43.1359834,11.3894 42.9114098,11.4560667 C42.6874891,11.5240667 42.4106891,11.5574 42.0810098,11.5574 L37.4126211,11.5574 Z" id="Fill-7" fill="#9EC73D"></path>
                    <path d="M45.4636494,15.7594667 L45.4636494,8.8508 C45.4636494,8.10946667 45.5563513,7.48613333 45.7404494,6.98146667 C45.9252004,6.47613333 46.2117928,6.06613333 46.6008796,5.7488 C46.9899664,5.4328 47.4939513,5.2068 48.1147928,5.07213333 C48.7349815,4.93813333 49.4792079,4.8708 50.3494306,4.8708 C51.220306,4.8708 51.9658381,4.93813333 52.585374,5.07213333 C53.2049098,5.2068 53.7108532,5.4328 54.0992872,5.7488 C54.4877211,6.06613333 54.7756192,6.47613333 54.9603702,6.98146667 C55.1451211,7.48613333 55.237823,8.10946667 55.237823,8.8508 L55.237823,15.7594667 L52.0911815,15.7594667 L52.0911815,9.0928 C52.0911815,8.81013333 52.0715966,8.5668 52.0324268,8.36546667 C51.9926042,8.1628 51.9129589,7.99546667 51.7941438,7.86013333 C51.6753287,7.72546667 51.5003702,7.62813333 51.270574,7.56746667 C51.0388192,7.5068 50.7319891,7.47613333 50.3494306,7.47613333 C49.9668721,7.47613333 49.6613475,7.5068 49.4302457,7.56746667 C49.1991438,7.62813333 49.0241853,7.72546667 48.9047174,7.86013333 C48.7872079,7.99546667 48.7082155,8.1628 48.6683928,8.36546667 C48.629223,8.5668 48.6089853,8.81013333 48.6089853,9.0928 L48.6089853,15.7594667 L45.4636494,15.7594667 Z" id="Fill-8" fill="#9EC73D"></path>
                    <path d="M59.847,8.24386667 C59.847,8.45986667 59.9129358,8.61786667 60.0441547,8.7192 C60.1760264,8.81986667 60.4730642,8.89053333 60.9339623,8.9312 L62.7547057,9.09253333 C63.3605321,9.14653333 63.8690868,9.2612 64.2771057,9.43653333 C64.687083,9.61186667 65.0128453,9.83386667 65.2570038,10.1032 C65.5005094,10.3725333 65.6722038,10.6858667 65.771434,11.0418667 C65.8706642,11.3992 65.9202792,11.7865333 65.9202792,12.2038667 L65.9202792,12.5472 C65.9202792,13.6652 65.5566528,14.4872 64.8326642,15.0118667 C64.1054113,15.5372 62.964917,15.7998667 61.4092226,15.7998667 L60.5403057,15.7998667 L59.3612943,15.7998667 C58.9330377,15.7998667 58.493683,15.7965333 58.0458415,15.7898667 C57.598,15.7832 57.1677849,15.7725333 56.759766,15.7592 L57.1958566,13.2745333 C57.8552151,13.2878667 58.5818151,13.2985333 59.3710868,13.3052 C60.162317,13.3118667 60.8745547,13.3152 61.5078,13.3152 C62.0627057,13.3152 62.4348189,13.2678667 62.6260981,13.1738667 C62.8167245,13.0792 62.9120377,12.8838667 62.9120377,12.5878667 C62.9120377,12.3592 62.8467547,12.1872 62.7155358,12.0725333 C62.5830113,11.9578667 62.2859736,11.8872 61.8244226,11.8605333 L59.8874755,11.7185333 C58.7913736,11.6385333 58.0125472,11.3152 57.5509962,10.7492 C57.0900981,10.1838667 56.8589962,9.49053333 56.8589962,8.66853333 L56.8589962,8.28453333 C56.8589962,7.78653333 56.9386415,7.3452 57.0966264,6.9612 C57.2539585,6.5772 57.5085623,6.2512 57.8584792,5.98186667 C58.2070906,5.71253333 58.6653774,5.5072 59.2346453,5.3652 C59.8006491,5.22386667 60.4926491,5.1532 61.3106453,5.1532 L62.1012226,5.1532 L63.0315057,5.1532 C63.3748943,5.1532 63.7665925,5.15653333 64.2085585,5.1632 C64.6505245,5.16986667 65.1551623,5.17986667 65.7218189,5.19386667 L65.2674491,7.67853333 C64.660317,7.6652 64.1354415,7.6552 63.6941283,7.64786667 C63.2528151,7.6412 62.8663396,7.63786667 62.5373132,7.63786667 L61.7062604,7.63786667 L61.1121849,7.63786667 C60.6382302,7.63786667 60.3078981,7.67186667 60.1231472,7.7392 C59.9383962,7.80653333 59.847,7.97453333 59.847,8.24386667" id="Fill-9" fill="#9EC73D"></path>
                    <path d="M67.5425623,15.7597333 L70.6872453,15.7597333 L70.6872453,5.19373333 L67.5425623,5.19373333 L67.5425623,15.7597333 Z M70.9052906,2.2844 C70.9052906,2.83706667 70.7799472,3.23373333 70.5286075,3.4764 C70.2785736,3.71906667 69.8104943,3.8404 69.1243698,3.8404 C68.4258415,3.8404 67.9505811,3.71906667 67.6998943,3.4764 C67.4498604,3.23373333 67.324517,2.83706667 67.324517,2.2844 C67.324517,1.75973333 67.4498604,1.3724 67.6998943,1.1224 C67.9505811,0.873733333 68.4258415,0.749066667 69.1243698,0.749066667 C69.8104943,0.749066667 70.2785736,0.873733333 70.5286075,1.1224 C70.7799472,1.3724 70.9052906,1.75973333 70.9052906,2.2844 L70.9052906,2.2844 Z" id="Fill-10" fill="#9EC73D"></path>
                    <path d="M79.4114721,9.82 C79.4114721,9.29466667 79.384706,8.874 79.3324796,8.55666667 C79.2796004,8.24133333 79.1803702,7.99866667 79.0347891,7.83 C78.8892079,7.662 78.6953174,7.54666667 78.4511589,7.48666667 C78.2070004,7.426 77.8942947,7.396 77.5123891,7.396 C77.1291777,7.396 76.8151664,7.426 76.5723136,7.48666667 C76.3275023,7.54666667 76.1336117,7.662 75.9893362,7.83 C75.8437551,7.99866667 75.7412608,8.24133333 75.6818532,8.55666667 C75.6224457,8.874 75.5924155,9.29466667 75.5924155,9.82 L75.5924155,11.1126667 C75.5924155,11.6386667 75.6224457,12.062 75.6818532,12.386 C75.7412608,12.7086667 75.8437551,12.9546667 75.9893362,13.1226667 C76.1336117,13.2913333 76.3275023,13.406 76.5723136,13.466 C76.8151664,13.5273333 77.1291777,13.5573333 77.5123891,13.5573333 C77.8942947,13.5573333 78.2070004,13.5273333 78.4511589,13.466 C78.6953174,13.406 78.8892079,13.2913333 79.0347891,13.1226667 C79.1803702,12.9546667 79.2796004,12.7086667 79.3324796,12.386 C79.384706,12.062 79.4114721,11.6386667 79.4114721,11.1126667 L79.4114721,9.82 Z M77.5123891,4.87066667 C78.4348381,4.87066667 79.21954,4.95133333 79.8658419,5.11266667 C80.5127966,5.27466667 81.0357136,5.55066667 81.437857,5.94133333 C81.841306,6.332 82.1350796,6.85 82.3198306,7.49666667 C82.5032758,8.14333333 82.5959777,8.95133333 82.5959777,9.92066667 L82.5959777,11.032 C82.5959777,11.9886667 82.5032758,12.7893333 82.3198306,13.4366667 C82.1350796,14.0826667 81.841306,14.6006667 81.437857,14.9913333 C81.0357136,15.382 80.5127966,15.662 79.8658419,15.8306667 C79.21954,15.9986667 78.4348381,16.0826667 77.5123891,16.0826667 C76.5892872,16.0826667 75.8045853,15.9986667 75.1576306,15.8306667 C74.5113287,15.662 73.9838419,15.382 73.5751702,14.9913333 C73.1664985,14.6006667 72.8694608,14.0826667 72.684057,13.4366667 C72.5006117,12.7893333 72.4079098,11.9886667 72.4079098,11.032 L72.4079098,9.92066667 C72.4079098,8.95133333 72.5006117,8.14333333 72.684057,7.49666667 C72.8694608,6.85 73.1664985,6.332 73.5751702,5.94133333 C73.9838419,5.55066667 74.5113287,5.27466667 75.1576306,5.11266667 C75.8045853,4.95133333 76.5892872,4.87066667 77.5123891,4.87066667 L77.5123891,4.87066667 Z" id="Fill-11" fill="#9EC73D"></path>
                    <path d="M84.3178826,15.7594667 L84.3178826,8.8508 C84.3178826,8.10946667 84.4092789,7.48613333 84.5940298,6.98146667 C84.7787808,6.47613333 85.0653732,6.06613333 85.45446,5.7488 C85.8435468,5.4328 86.3481845,5.2068 86.969026,5.07213333 C87.5885619,4.93813333 88.3334411,4.8708 89.2036638,4.8708 C90.0732336,4.8708 90.8187657,4.93813333 91.4389543,5.07213333 C92.0584902,5.2068 92.5637808,5.4328 92.9528675,5.7488 C93.3406487,6.06613333 93.6285468,6.47613333 93.8132977,6.98146667 C93.9980487,7.48613333 94.0907506,8.10946667 94.0907506,8.8508 L94.0907506,15.7594667 L90.9441091,15.7594667 L90.9441091,9.0928 C90.9441091,8.81013333 90.9245242,8.5668 90.8853543,8.36546667 C90.8455317,8.1628 90.7665392,7.99546667 90.6470713,7.86013333 C90.5295619,7.72546667 90.3546034,7.62813333 90.1235015,7.56746667 C89.8923996,7.5068 89.5862223,7.47613333 89.2036638,7.47613333 C88.8211053,7.47613333 88.5142751,7.5068 88.283826,7.56746667 C88.0527242,7.62813333 87.8777657,7.72546667 87.7589506,7.86013333 C87.6414411,7.99546667 87.5617958,8.1628 87.5219732,8.36546667 C87.4828034,8.5668 87.4625657,8.81013333 87.4625657,9.0928 L87.4625657,15.7594667 L84.3178826,15.7594667 Z" id="Fill-12" fill="#9EC73D"></path>
                    <path d="M98.6999275,8.24386667 C98.6999275,8.45986667 98.7658634,8.61786667 98.8970823,8.7192 C99.028954,8.81986667 99.3259917,8.89053333 99.7875426,8.9312 L101.608286,9.09253333 C102.21346,9.14653333 102.722014,9.2612 103.130686,9.43653333 C103.540011,9.61186667 103.865773,9.83386667 104.109931,10.1032 C104.353437,10.3725333 104.525131,10.6858667 104.624362,11.0418667 C104.723592,11.3992 104.773207,11.7865333 104.773207,12.2038667 L104.773207,12.5472 C104.773207,13.6652 104.40958,14.4872 103.685592,15.0118667 C102.958339,15.5372 101.817845,15.7998667 100.26215,15.7998667 L99.3925804,15.7998667 L98.2142219,15.7998667 C97.7866181,15.7998667 97.3472634,15.7965333 96.8987691,15.7898667 C96.4509275,15.7832 96.0207125,15.7725333 95.6126936,15.7592 L96.0487842,13.2745333 C96.7081426,13.2878667 97.4340898,13.2985333 98.2240143,13.3052 C99.0152445,13.3118667 99.7274823,13.3152 100.360728,13.3152 C100.916286,13.3152 101.287746,13.2678667 101.479678,13.1738667 C101.669652,13.0792 101.765618,12.8838667 101.765618,12.5878667 C101.765618,12.3592 101.699682,12.1872 101.569116,12.0725333 C101.435939,11.9578667 101.138901,11.8872 100.678003,11.8605333 L98.7397502,11.7185333 C97.6443011,11.6385333 96.8654747,11.3152 96.4045766,10.7492 C95.9430257,10.1838667 95.7125766,9.49053333 95.7125766,8.66853333 L95.7125766,8.28453333 C95.7125766,7.78653333 95.7915691,7.3452 95.9502068,6.9612 C96.106886,6.5772 96.3614898,6.2512 96.7114068,5.98186667 C97.0606709,5.71253333 97.5183049,5.5072 98.08692,5.3652 C98.6535766,5.22386667 99.3455766,5.1532 100.163573,5.1532 L100.95415,5.1532 L101.884433,5.1532 C102.227822,5.1532 102.61952,5.15653333 103.061486,5.1632 C103.503452,5.16986667 104.00809,5.17986667 104.574746,5.19386667 L104.120377,7.67853333 C103.513897,7.6652 102.988369,7.6552 102.547709,7.64786667 C102.105743,7.6412 101.719267,7.63786667 101.390241,7.63786667 L100.559188,7.63786667 L99.9651125,7.63786667 C99.4911577,7.63786667 99.1608257,7.67186667 98.9760747,7.7392 C98.7913238,7.80653333 98.6999275,7.97453333 98.6999275,8.24386667" id="Fill-13" fill="#9EC73D"></path>
                    <path d="M4.55469849,30.2158667 C5.04693245,30.2158667 5.44254755,30.1798667 5.74154377,30.1078667 C6.04054,30.0358667 6.27490604,29.8932 6.44529472,29.6765333 C6.61503057,29.4618667 6.72666453,29.1592 6.77954377,28.7705333 C6.83177019,28.3812 6.8578834,27.8692 6.8578834,27.2345333 L6.8578834,26.4265333 C6.8578834,25.7685333 6.82850604,25.2445333 6.77040415,24.8552 C6.71164943,24.4665333 6.59675132,24.1672 6.4276683,23.9572 C6.25727962,23.7478667 6.02291358,23.6105333 5.72457019,23.5445333 C5.42492113,23.4798667 5.03518151,23.4465333 4.55469849,23.4465333 C4.08596642,23.4465333 3.69883811,23.4798667 3.39396642,23.5445333 C3.08844189,23.6105333 2.84885321,23.7445333 2.67258906,23.9492 C2.49697774,24.1525333 2.37685698,24.4425333 2.31222679,24.8192 C2.2475966,25.1972 2.21560792,25.7025333 2.21560792,26.3378667 L2.21560792,27.6118667 C2.21560792,28.1385333 2.25086075,28.5698667 2.32136642,28.9045333 C2.39187208,29.2405333 2.51460415,29.5072 2.69021547,29.7038667 C2.86647962,29.9012 3.10672113,30.0358667 3.41159283,30.1078667 C3.71646453,30.1798667 4.09706453,30.2158667 4.55469849,30.2158667 M4.57232491,21.9012 C5.32242679,21.9012 5.96154755,21.9705333 6.48838151,22.1072 C7.01652113,22.2458667 7.44738906,22.4878667 7.78163811,22.8345333 C8.11588717,23.1825333 8.35874,23.6465333 8.51150226,24.2272 C8.66295887,24.8085333 8.73999283,25.5405333 8.73999283,26.4265333 L8.73999283,27.2345333 C8.73999283,28.0252 8.67797396,28.7045333 8.55458906,29.2725333 C8.43185698,29.8412 8.21446453,30.3092 7.90437019,30.6745333 C7.59362302,31.0385333 7.16863057,31.3118667 6.62939283,31.4905333 C6.09015509,31.6705333 5.39880792,31.7598667 4.55469849,31.7598667 C4.00370981,31.7598667 3.53758906,31.6905333 3.15633623,31.5538667 C2.77573623,31.4158667 2.46825321,31.2398667 2.23323434,31.0232 L2.23323434,34.6158667 L0.369404151,34.6158667 L0.369404151,26.3378667 C0.369404151,25.4865333 0.448396604,24.7772 0.606381509,24.2092 C0.765019245,23.6412 1.01374755,23.1852 1.35387208,22.8438667 C1.6939966,22.5025333 2.12812868,22.2605333 2.65496264,22.1165333 C3.18310226,21.9732 3.82157019,21.9012 4.57232491,21.9012" id="Fill-14" fill="#FFFFFF"></path>
                    <path d="M11.9752234,28.6898 C11.9752234,29.1091333 12.0986083,29.4231333 12.3440725,29.6324667 C12.5901894,29.8418 13.0419479,29.9464667 13.6986951,29.9464667 L16.3713819,29.9464667 L16.3713819,28.2938 C16.3713819,28.0664667 16.34788,27.8698 16.3015291,27.7024667 C16.2538725,27.5344667 16.1605177,27.3991333 16.0195064,27.2978 C15.8791479,27.1964667 15.6741592,27.1204667 15.4038875,27.0724667 C15.1342687,27.0258 14.7771706,27.0018 14.3312875,27.0018 L13.9271857,27.0018 C13.5400574,27.0018 13.2208234,27.0224667 12.9681781,27.0644667 C12.7168385,27.1064667 12.5177253,27.1778 12.3708385,27.2798 C12.2239517,27.3818 12.1214574,27.5158 12.0633555,27.6838 C12.0039479,27.8518 11.9752234,28.0611333 11.9752234,28.3124667 L11.9752234,28.6898 Z M18.1301064,29.9278 C18.1301064,30.5038 18.000846,30.9038 17.7429781,31.1318 C17.4851102,31.3591333 17.0157253,31.4731333 16.3361291,31.4731333 L13.6986951,31.4731333 C12.4674574,31.4731333 11.5854838,31.2424667 11.0521215,30.7818 C10.5181064,30.3198 10.2517517,29.6298 10.2517517,28.7071333 L10.2517517,28.3124667 C10.2517517,27.3071333 10.5422611,26.5884667 11.1219743,26.1578 C11.7029932,25.7264667 12.6078158,25.5104667 13.8390536,25.5104667 C14.5428045,25.5104667 15.0937932,25.5671333 15.4920196,25.6804667 C15.8908989,25.7951333 16.1833668,25.9178 16.3713819,26.0498 L16.3713819,25.5104667 C16.3713819,25.2118 16.3511442,24.9511333 16.309363,24.7298 C16.2688875,24.5084667 16.1690045,24.3224667 16.0110196,24.1738 C15.8523819,24.0238 15.6238913,23.9098 15.3248951,23.8324667 C15.0258989,23.7544667 14.6185328,23.7151333 14.102797,23.7151333 C13.610563,23.7151333 13.0856875,23.7178 12.5288234,23.7244667 C11.9726121,23.7304667 11.4940875,23.7391333 11.0958611,23.7511333 L11.4301102,22.1891333 C11.7578309,22.1764667 12.1625857,22.1678 12.6430687,22.1618 C13.1235517,22.1564667 13.610563,22.1524667 14.102797,22.1524667 C15.521397,22.1524667 16.5469932,22.4071333 17.1802385,22.9158 C17.8134838,23.4251333 18.1301064,24.1758 18.1301064,25.1698 L18.1301064,29.9278 Z" id="Fill-15" fill="#FFFFFF"></path>
                    <path d="M21.0316102,33.0537333 C21.616546,33.0770667 22.1277121,33.0890667 22.5611913,33.0890667 L23.8975347,33.0890667 C24.3316668,33.0890667 24.7005158,33.0504 25.0053875,32.9724 C25.3102592,32.8944 25.5602932,32.7624 25.7528781,32.5777333 C25.9461158,32.3917333 26.0832102,32.1370667 26.1661196,31.8144 C26.2483762,31.4904 26.2888517,31.0777333 26.2888517,30.5750667 L26.2888517,30.3770667 C26.1843989,30.4737333 26.0668894,30.5684 25.9376291,30.6650667 C25.8083687,30.7610667 25.6471196,30.8450667 25.4538819,30.9164 C25.2606442,30.9870667 25.0197498,31.0444 24.7331574,31.0870667 C24.4452592,31.1284 24.0914253,31.1497333 23.6690442,31.1497333 C22.5429121,31.1497333 21.6785649,30.9310667 21.074697,30.4944 C20.4714819,30.0570667 20.1698743,29.2884 20.1698743,28.1857333 L20.1698743,22.1890667 L22.0160781,22.1890667 L22.0160781,27.7564 C22.0160781,28.0550667 22.0304404,28.3177333 22.0598177,28.5450667 C22.0891951,28.7737333 22.1649234,28.9644 22.2889611,29.1210667 C22.4116932,29.2764 22.6049309,29.3930667 22.8680215,29.4710667 C23.1330706,29.5477333 23.4934328,29.5870667 23.950414,29.5870667 C24.4543989,29.5870667 24.8585008,29.5544 25.1640253,29.4884 C25.4682442,29.4230667 25.7026102,29.3090667 25.8671234,29.1477333 C26.0309838,28.9850667 26.1426177,28.7764 26.2013725,28.5184 C26.2601272,28.2617333 26.2888517,27.9417333 26.2888517,27.5584 L26.2888517,22.1890667 L28.1357083,22.1890667 L28.1357083,30.5750667 C28.1357083,31.3177333 28.0567158,31.9457333 27.8987309,32.4597333 C27.7394404,32.9757333 27.4881008,33.3950667 27.1421008,33.7177333 C26.7961008,34.0404 26.356746,34.2770667 25.8233838,34.4277333 C25.2887158,34.5770667 24.6535121,34.6510667 23.9151611,34.6510667 L23.1591838,34.6510667 L22.4384592,34.6510667 C22.1916894,34.6510667 21.927946,34.6490667 21.6465762,34.6424 C21.3658592,34.6364 21.0485838,34.6264 20.6973611,34.6157333 L21.0316102,33.0537333 Z" id="Fill-16" fill="#FFFFFF"></path>
                    <path d="M34.9763242,25.9958 C35.5044638,26.0431333 35.9314147,26.1538 36.2604411,26.3284667 C36.5881619,26.5018 36.8401543,26.7104667 37.0157657,26.9558 C37.1920298,27.2024667 37.3121506,27.4658 37.3767808,27.7471333 C37.4407581,28.0278 37.4733996,28.3011333 37.4733996,28.5638 L37.4733996,28.8151333 C37.4733996,29.6651333 37.1744034,30.3271333 36.5764109,30.7998 C35.9784185,31.2731333 35.0579279,31.5091333 33.8162449,31.5091333 C33.2881053,31.5091333 32.6757506,31.5058 31.9778751,31.4998 C31.2799996,31.4938 30.5801657,31.4838 29.8764147,31.4731333 L30.1930374,29.9104667 C30.8262826,29.9231333 31.470626,29.9311333 32.1273732,29.9378 C32.7841204,29.9438 33.3762374,29.9464667 33.9030713,29.9464667 C34.5826675,29.9464667 35.0487883,29.8691333 35.3014336,29.7131333 C35.553426,29.5578 35.6794223,29.2524667 35.6794223,28.7978 C35.6794223,28.6531333 35.66506,28.5191333 35.6356826,28.3938 C35.6063053,28.2671333 35.5482034,28.1564667 35.4594185,28.0611333 C35.3712864,27.9651333 35.245943,27.8844667 35.0814298,27.8178 C34.9169166,27.7531333 34.6943015,27.7078 34.4135845,27.6838 L32.3029845,27.4858 C31.8695053,27.4504667 31.5006562,27.3578 31.1951317,27.2071333 C30.89026,27.0584667 30.644143,26.8724667 30.4567808,26.6511333 C30.2687657,26.4291333 30.1310185,26.1811333 30.0428864,25.9058 C29.95606,25.6311333 29.9116675,25.3484667 29.9116675,25.0624667 L29.9116675,24.7571333 C29.9116675,23.9431333 30.1871619,23.3058 30.7381506,22.8431333 C31.2891392,22.3838 32.1913506,22.1524667 33.4460902,22.1524667 L35.2054675,22.1524667 C35.8139053,22.1524667 36.5000298,22.1651333 37.2625355,22.1891333 L36.9459128,23.7511333 C36.4536789,23.7391333 36.0195468,23.7304667 35.6441694,23.7244667 C35.2687921,23.7178 34.9378072,23.7151333 34.6505619,23.7151333 L33.8763053,23.7151333 L33.2521996,23.7151333 C32.65486,23.7151333 32.2390072,23.7891333 32.0039883,23.9398 C31.7696223,24.0898 31.6527657,24.3564667 31.6527657,24.7384667 C31.6527657,24.8944667 31.6671279,25.0324667 31.6971581,25.1511333 C31.7258826,25.2718 31.7839845,25.3724667 31.8721166,25.4564667 C31.9602487,25.5404667 32.0888562,25.6131333 32.2592449,25.6724667 C32.4296336,25.7318 32.65486,25.7744667 32.9362298,25.7984667 L34.9763242,25.9958 Z" id="Fill-17" fill="#FFFFFF"></path>
                    <path d="M40.7083691,28.6898 C40.7083691,29.1091333 40.831754,29.4231333 41.0778709,29.6324667 C41.3233351,29.8418 41.7750936,29.9464667 42.4318408,29.9464667 L45.1045275,29.9464667 L45.1045275,28.2938 C45.1045275,28.0664667 45.0810257,27.8698 45.0346747,27.7024667 C44.9876709,27.5344667 44.8936634,27.3991333 44.7526521,27.2978 C44.6122936,27.1964667 44.4073049,27.1204667 44.137686,27.0724667 C43.8680672,27.0258 43.5103162,27.0018 43.0644332,27.0018 L42.6603313,27.0018 C42.273203,27.0018 41.9539691,27.0224667 41.7019766,27.0644667 C41.4499842,27.1064667 41.2508709,27.1778 41.1039842,27.2798 C40.9570974,27.3818 40.8552558,27.5158 40.7965011,27.6838 C40.7377464,27.8518 40.7083691,28.0611333 40.7083691,28.3124667 L40.7083691,28.6898 Z M46.8632521,29.9278 C46.8632521,30.5038 46.7339917,30.9038 46.4761238,31.1318 C46.2182558,31.3591333 45.7495238,31.4731333 45.0699275,31.4731333 L42.4318408,31.4731333 C41.2012558,31.4731333 40.3186294,31.2424667 39.7852672,30.7818 C39.2519049,30.3198 38.9848974,29.6298 38.9848974,28.7071333 L38.9848974,28.3124667 C38.9848974,27.3071333 39.2754068,26.5884667 39.85512,26.1578 C40.4361389,25.7264667 41.3416143,25.5104667 42.5721992,25.5104667 C43.276603,25.5104667 43.8269389,25.5671333 44.2258181,25.6804667 C44.6240445,25.7951333 44.9165125,25.9178 45.1045275,26.0498 L45.1045275,25.5104667 C45.1045275,25.2118 45.0842898,24.9511333 45.0431615,24.7298 C45.0020332,24.5084667 44.902803,24.3224667 44.7441653,24.1738 C44.5861804,24.0238 44.357037,23.9098 44.0586936,23.8324667 C43.7596974,23.7544667 43.3523313,23.7151333 42.8365955,23.7151333 C42.3437087,23.7151333 41.8188332,23.7178 41.2626219,23.7244667 C40.7057577,23.7304667 40.227886,23.7391333 39.8296596,23.7511333 L40.1639087,22.1891333 C40.4916294,22.1764667 40.8957313,22.1678 41.3762143,22.1618 C41.8573502,22.1564667 42.3437087,22.1524667 42.8365955,22.1524667 C44.2551955,22.1524667 45.2807917,22.4071333 45.914037,22.9158 C46.5466294,23.4251333 46.8632521,24.1758 46.8632521,25.1698 L46.8632521,29.9278 Z" id="Fill-18" fill="#FFFFFF"></path>
                    <path d="M52.8953377,29.6052 C53.3869189,29.6052 53.7831868,29.5685333 54.0828358,29.4978667 C54.3811792,29.4252 54.6155453,29.2998667 54.7852811,29.1198667 C54.9543642,28.9405333 55.0692623,28.7038667 55.1286698,28.4112 C55.1880774,28.1185333 55.2168019,27.7438667 55.2168019,27.2885333 L55.2168019,26.4258667 C55.2168019,25.8158667 55.1965642,25.3158667 55.154783,24.9265333 C55.1123491,24.5378667 55.016383,24.2352 54.8649264,24.0205333 C54.7121642,23.8052 54.4817151,23.6558667 54.1709679,23.5712 C53.8595679,23.4885333 53.4345755,23.4458667 52.8953377,23.4458667 C52.3554472,23.4458667 51.9298019,23.4885333 51.6197075,23.5712 C51.3089604,23.6558667 51.0778585,23.8052 50.9250962,24.0205333 C50.772334,24.2352 50.6763679,24.5378667 50.6352396,24.9265333 C50.5941113,25.3158667 50.5732208,25.8158667 50.5732208,26.4258667 L50.5732208,26.6238667 C50.5732208,27.2345333 50.5941113,27.7345333 50.6352396,28.1232 C50.6763679,28.5125333 50.7762509,28.8145333 50.933583,29.0312 C51.0922208,29.2458667 51.3239755,29.3965333 51.6288472,29.4798667 C51.9337189,29.5632 52.3554472,29.6052 52.8953377,29.6052 L52.8953377,29.6052 Z M55.2168019,30.4132 C54.9811302,30.6292 54.6769113,30.8058667 54.301534,30.9432 C53.9261566,31.0812 53.4045453,31.1492 52.7367,31.1492 C51.9160925,31.1492 51.2443302,31.0505333 50.7233717,30.8538667 C50.2011075,30.6558667 49.7904774,30.3685333 49.4914811,29.9918667 C49.1931377,29.6145333 48.9848849,29.1532 48.8673755,28.6085333 C48.7505189,28.0632 48.692417,27.4385333 48.692417,26.7312 L48.692417,26.3185333 C48.692417,25.6365333 48.7452962,25.0232 48.8504019,24.4785333 C48.9561604,23.9338667 49.1604962,23.4705333 49.4653679,23.0872 C49.7702396,22.7032 50.1952321,22.4105333 50.7403453,22.2065333 C51.2854585,22.0032 51.9976962,21.9012 52.8777113,21.9012 C53.7570736,21.9012 54.4693113,22.0032 55.0137717,22.2065333 C55.5601906,22.4105333 55.9806132,22.6945333 56.2802623,23.0598667 C56.5799113,23.4245333 56.7816358,23.8618667 56.8873943,24.3698667 C56.9931528,24.8798667 57.0460321,25.4392 57.0460321,26.0498667 L57.0460321,30.5758667 C57.0460321,31.3165333 56.9670396,31.9458667 56.8084019,32.4605333 C56.6497642,32.9758667 56.4010358,33.3952 56.0602585,33.7178667 C55.7207868,34.0405333 55.2846962,34.2772 54.7500283,34.4265333 C54.216666,34.5772 53.5808094,34.6512 52.8424585,34.6512 L52.0858283,34.6512 L51.3644509,34.6512 C51.1189868,34.6512 50.8545906,34.6478667 50.5732208,34.6425333 C50.2925038,34.6365333 49.9752283,34.6272 49.6240057,34.6158667 L49.9752283,33.0538667 C50.5621226,33.0772 51.0687189,33.0892 51.4969755,33.0892 L52.8248321,33.0892 C53.2583113,33.0892 53.6271604,33.0498667 53.9333377,32.9725333 C54.2369038,32.8945333 54.4869377,32.7625333 54.6788698,32.5772 C54.8727604,32.3918667 55.0118132,32.1372 55.093417,31.8138667 C55.1743679,31.4912 55.2168019,31.0778667 55.2168019,30.5758667 L55.2168019,30.4132 Z" id="Fill-19" fill="#FFFFFF"></path>
                    <path d="M62.9013966,23.3922667 C62.4320117,23.3922667 62.0572872,23.4282667 61.7759174,23.5002667 C61.4945475,23.5716 61.2745438,23.7062667 61.1172117,23.9036 C60.9579211,24.1009333 60.8528155,24.3742667 60.7999362,24.7202667 C60.747057,25.0682667 60.7202909,25.5176 60.7202909,26.0676 L65.0994758,26.0676 L65.0994758,25.4569333 C65.0994758,25.0622667 65.0661815,24.7296 65.002857,24.4609333 C64.937574,24.1909333 64.8207174,23.9789333 64.6516343,23.8229333 C64.4812457,23.6676 64.2553664,23.5569333 63.9739966,23.4902667 C63.6932796,23.4249333 63.3348758,23.3922667 62.9013966,23.3922667 L62.9013966,23.3922667 Z M60.7202909,27.5216 C60.7202909,28.0249333 60.747057,28.4322667 60.7999362,28.7429333 C60.8528155,29.0549333 60.9579211,29.2996 61.1172117,29.4796 C61.2745438,29.6582667 61.4945475,29.7822667 61.7759174,29.8482667 C62.0572872,29.9129333 62.4320117,29.9462667 62.9013966,29.9462667 L64.1933475,29.9462667 C64.7156117,29.9462667 65.3925966,29.9342667 66.2249551,29.9096 L65.9083325,31.4729333 C65.544706,31.4849333 65.2339589,31.4929333 64.9767438,31.5002667 C64.7188758,31.5056 64.4812457,31.5089333 64.264506,31.5089333 L63.6221211,31.5089333 L62.9013966,31.5089333 C62.0696909,31.5089333 61.3920532,31.4096 60.8704419,31.2122667 C60.3488306,31.0149333 59.9382004,30.7342667 59.639857,30.3682667 C59.3402079,30.0036 59.1378306,29.5602667 59.0327249,29.0396 C58.9276192,28.5182667 58.87474,27.9409333 58.87474,27.3069333 L58.87474,26.3009333 C58.87474,25.6189333 58.9295777,25.0049333 59.0418645,24.4609333 C59.1534985,23.9162667 59.3578343,23.4549333 59.6574834,23.0776 C59.955174,22.7009333 60.3716796,22.4109333 60.9056947,22.2069333 C61.4384042,22.0036 62.1330155,21.9016 62.9895287,21.9016 C63.7742306,21.9016 64.4159626,21.9942667 64.9147249,22.1796 C65.4134872,22.3649333 65.8051853,22.6169333 66.0930834,22.9336 C66.3796758,23.2516 66.5768306,23.6162667 66.6825891,24.0296 C66.7870419,24.4422667 66.8399211,24.8709333 66.8399211,25.3129333 L66.8399211,25.5829333 C66.8399211,26.0136 66.8170721,26.3542667 66.7700683,26.6056 C66.7230645,26.8569333 66.6473362,27.0516 66.5415777,27.1896 C66.4358192,27.3269333 66.3039475,27.4176 66.1459626,27.4596 C65.9886306,27.5016 65.7966985,27.5216 65.5740834,27.5216 L60.7202909,27.5216 Z" id="Fill-20" fill="#FFFFFF"></path>
                    <path d="M76.9831396,26.126 C77.3957283,26.1973333 77.7436868,26.2993333 78.0244038,26.4293333 C78.3057736,26.5586667 78.5329585,26.7273333 78.704,26.934 C78.8750415,27.14 78.9984264,27.388 79.0735019,27.6746667 C79.1479245,27.962 79.1857887,28.2993333 79.1857887,28.6853333 L79.1857887,28.914 C79.1857887,29.3453333 79.1283396,29.722 79.0140943,30.0453333 C78.8998491,30.368 78.7059585,30.638 78.4343811,30.8533333 C78.1608453,31.0693333 77.8011358,31.23 77.3513358,31.3373333 C76.9034943,31.4453333 76.3453245,31.5 75.6774792,31.5 L74.4828,31.5 C73.959883,31.5 73.2900792,31.4906667 72.472083,31.4733333 L72.7097132,30.2073333 C73.0609358,30.216 73.371683,30.2233333 73.6399962,30.2266667 C73.9070038,30.2313333 74.1563849,30.234 74.3855283,30.234 L75.0311774,30.234 L75.6774792,30.234 C76.1076943,30.234 76.4621811,30.214 76.7383283,30.1726667 C77.016434,30.1333333 77.2331736,30.0606667 77.3911585,29.958 C77.5497962,29.8546667 77.6575132,29.7153333 77.7149623,29.54 C77.7724113,29.3646667 77.8011358,29.1426667 77.8011358,28.8733333 C77.8011358,28.64 77.7854679,28.4433333 77.7547849,28.28 C77.7241019,28.1186667 77.662083,27.9826667 77.5693811,27.8693333 C77.4773321,27.7573333 77.3428491,27.666 77.1678906,27.594 C76.9922792,27.522 76.758566,27.4593333 76.4687094,27.4053333 L74.6877887,27.1093333 C74.2490868,27.038 73.8854604,26.932 73.6001736,26.7926667 C73.314234,26.654 73.0896604,26.4833333 72.9277585,26.2806667 C72.7645509,26.0786667 72.6522642,25.8406667 72.5902453,25.5673333 C72.5295321,25.2933333 72.4981962,24.9806667 72.4981962,24.6306667 L72.4981962,24.3753333 C72.4981962,23.9886667 72.5582566,23.6406667 72.6764189,23.3313333 C72.795234,23.022 72.9884717,22.7566667 73.2567849,22.5366667 C73.5250981,22.3166667 73.8763208,22.148 74.3124113,22.032 C74.7471962,21.9153333 75.2851283,21.8566667 75.9275132,21.8566667 L76.5999283,21.8566667 L77.2331736,21.8566667 C77.4531774,21.8566667 77.692766,21.8586667 77.9512868,21.8626667 C78.211766,21.868 78.5264302,21.8746667 78.8952792,21.8833333 L78.6569962,23.15 C78.0328906,23.132 77.5014868,23.1233333 77.0621321,23.1233333 L75.8093509,23.1233333 C75.4215698,23.1233333 75.1036415,23.1433333 74.8529547,23.182 C74.6022679,23.2233333 74.4051132,23.2953333 74.2595321,23.398 C74.1139509,23.5013333 74.0153736,23.6366667 73.9624943,23.8033333 C73.9096151,23.9686667 73.8828491,24.178 73.8828491,24.4293333 C73.8828491,24.644 73.898517,24.8286667 73.9292,24.9806667 C73.959883,25.134 74.0199434,25.2646667 74.1080755,25.372 C74.1955547,25.4786667 74.3235094,25.57 74.4899811,25.64 C74.6571057,25.7133333 74.8771094,25.7713333 75.1486868,25.8166667 L76.9831396,26.126 Z" id="Fill-21" fill="#FFFFFF"></path>
                    <path d="M82.4697204,27.5134 L85.4753506,27.5134 L83.9731883,23.3114 L82.4697204,27.5134 Z M85.9114411,28.7247333 L82.0473392,28.7247333 L81.0713581,31.4720667 L79.6736487,31.4720667 L83.2609506,21.8834 L84.7898789,21.8834 L88.3778336,31.4720667 L86.899826,31.4720667 L85.9114411,28.7247333 Z" id="Fill-22" fill="#FFFFFF"></path>
                </g>
            </g>
        </g>
    </g>
</svg>